<?xml version="1.0" encoding="UTF-8"?>
<svg width="192" height="192" viewBox="0 0 192 192" xmlns="http://www.w3.org/2000/svg">
  <defs>
    <!-- Brown gradient for favicon -->
    <linearGradient id="brownGradient" x1="0%" y1="0%" x2="100%" y2="100%">
      <stop offset="0%" style="stop-color:#8B4513;stop-opacity:1" />
      <stop offset="50%" style="stop-color:#A0522D;stop-opacity:1" />
      <stop offset="100%" style="stop-color:#654321;stop-opacity:1" />
    </linearGradient>
    
    <!-- Light brown for shield interior -->
    <linearGradient id="lightBrownGradient" x1="0%" y1="0%" x2="100%" y2="100%">
      <stop offset="0%" style="stop-color:#D2B48C;stop-opacity:0.4" />
      <stop offset="50%" style="stop-color:#DEB887;stop-opacity:0.3" />
      <stop offset="100%" style="stop-color:#F5DEB3;stop-opacity:0.2" />
    </linearGradient>
    
    <!-- Shadow filter -->
    <filter id="dropShadow" x="-20%" y="-20%" width="140%" height="140%">
      <feDropShadow dx="1" dy="1" stdDeviation="2" flood-opacity="0.4"/>
    </filter>
  </defs>
  
  <!-- Background circle -->
  <circle cx="96" cy="96" r="90" fill="#F8F8F0" stroke="none"/>
  
  <!-- Outer brown circle border -->
  <circle cx="96" cy="96" r="85" fill="none" stroke="url(#brownGradient)" stroke-width="4"/>
  
  <!-- Traditional Shield shape -->
  <path d="M 96 35 
           L 115 40
           L 125 45
           L 125 85
           C 125 105, 120 115, 110 125
           L 96 135
           L 82 125
           C 72 115, 67 105, 67 85
           L 67 45
           L 77 40
           Z" 
        fill="url(#lightBrownGradient)" 
        stroke="url(#brownGradient)" 
        stroke-width="3"
        filter="url(#dropShadow)"/>
  
  <!-- Upward pointing arrow -->
  <path d="M 96 60 
           L 108 78 
           L 102 78 
           L 102 108 
           L 90 108 
           L 90 78 
           L 84 78 
           Z" 
        fill="url(#brownGradient)" 
        stroke="#654321" 
        stroke-width="1"
        filter="url(#dropShadow)"/>
        
  <!-- Arrow highlight -->
  <path d="M 96 62 
           L 105 76 
           L 101 76 
           L 101 106 
           L 91 106 
           L 91 76 
           L 87 76 
           Z" 
        fill="rgba(255,255,255,0.3)"/>
        
</svg>