<?xml version="1.0" encoding="UTF-8"?>
<svg width="200" height="200" viewBox="0 0 200 200" xmlns="http://www.w3.org/2000/svg">
  <defs>
    <!-- Brown gradient for depth -->
    <linearGradient id="brownGradient" x1="0%" y1="0%" x2="100%" y2="100%">
      <stop offset="0%" style="stop-color:#8B4513;stop-opacity:1" />
      <stop offset="50%" style="stop-color:#A0522D;stop-opacity:1" />
      <stop offset="100%" style="stop-color:#654321;stop-opacity:1" />
    </linearGradient>
    
    <!-- Light brown for shield interior -->
    <linearGradient id="lightBrownGradient" x1="0%" y1="0%" x2="100%" y2="100%">
      <stop offset="0%" style="stop-color:#D2B48C;stop-opacity:0.3" />
      <stop offset="50%" style="stop-color:#DEB887;stop-opacity:0.2" />
      <stop offset="100%" style="stop-color:#F5DEB3;stop-opacity:0.1" />
    </linearGradient>
    
    <!-- Shadow filter -->
    <filter id="dropShadow" x="-20%" y="-20%" width="140%" height="140%">
      <feDropShadow dx="2" dy="2" stdDeviation="3" flood-opacity="0.3"/>
    </filter>
  </defs>
  
  <!-- Background circle (cream/off-white) -->
  <circle cx="100" cy="100" r="98" fill="#F8F8F0" stroke="none"/>
  
  <!-- Outer brown circle border -->
  <circle cx="100" cy="100" r="90" fill="none" stroke="url(#brownGradient)" stroke-width="4" filter="url(#dropShadow)"/>
  
  <!-- Traditional Shield shape surrounding the arrow -->
  <path d="M 100 45 
           L 115 50
           L 125 55
           L 125 100
           C 125 115, 120 125, 110 135
           L 100 145
           L 90 135
           C 80 125, 75 115, 75 100
           L 75 55
           L 85 50
           Z" 
        fill="url(#lightBrownGradient)" 
        stroke="url(#brownGradient)" 
        stroke-width="3"
        filter="url(#dropShadow)"/>
  
  <!-- Shield border highlight for depth -->
  <path d="M 100 48 
           L 113 52
           L 122 57
           L 122 98
           C 122 112, 118 121, 109 130
           L 100 139
           L 91 130
           C 82 121, 78 112, 78 98
           L 78 57
           L 87 52
           Z" 
        fill="none" 
        stroke="rgba(255,255,255,0.3)" 
        stroke-width="1"/>
  
  <!-- Upward pointing arrow - main focal point within shield -->
  <path d="M 100 70 
           L 112 88 
           L 106 88 
           L 106 118 
           L 94 118 
           L 94 88 
           L 88 88 
           Z" 
        fill="url(#brownGradient)" 
        stroke="#654321" 
        stroke-width="1.5"
        filter="url(#dropShadow)"/>
        
  <!-- Arrow highlight for depth -->
  <path d="M 100 72 
           L 109 86 
           L 105 86 
           L 105 116 
           L 95 116 
           L 95 86 
           L 91 86 
           Z" 
        fill="rgba(255,255,255,0.2)"/>
  
  <!-- Small decorative elements for professionalism -->
  <circle cx="100" cy="130" r="2" fill="url(#brownGradient)" opacity="0.6"/>
  <circle cx="95" cy="135" r="1" fill="url(#brownGradient)" opacity="0.4"/>
  <circle cx="105" cy="135" r="1" fill="url(#brownGradient)" opacity="0.4"/>
  
</svg>